<?xml version="1.0" encoding="utf-8"?>
<svg version="1.1" id="Layer_1" xmlns="http://www.w3.org/2000/svg" x="0px" y="0px" width="100%" viewBox="0 364.948 786.528 340.052" enable-background="new 0 0 1151 705">
  <path fill="#EB1C2E" opacity="1.000000" stroke="none" d=" M1.000000,466.375000 C22.372028,464.855316 43.744057,463.710632 65.537292,462.543365 C74.318260,482.178040 83.354179,502.382812 92.442093,522.703857 C101.359665,502.489349 110.225006,482.393219 119.033501,462.425964 C140.271683,463.726929 161.266663,465.013031 182.951950,466.341431 C182.632217,469.372345 182.382675,472.514435 181.951828,475.631470 C181.372498,479.822693 180.608337,483.988190 180.010376,488.177094 C179.635284,490.804688 178.597275,492.569824 175.584473,491.979370 C169.235382,490.734985 162.898422,489.428802 156.284195,488.092987 C157.830597,508.692963 159.370148,529.201843 160.943420,550.159668 C168.204117,549.690552 174.867111,549.260010 181.781708,548.813232 C181.781708,557.048950 181.781708,564.660217 181.781708,572.500000 C159.758438,572.500000 137.683594,572.500000 115.302780,572.500000 C115.302780,565.008545 115.302780,557.273926 115.302780,548.950562 C121.354607,549.370911 127.342857,549.786865 133.821701,550.236877 C133.130051,533.387146 132.458984,517.038940 131.726364,499.190857 C124.763008,513.518433 118.415100,526.599121 112.048782,539.670898 C108.700005,546.546875 105.206688,553.355469 102.008186,560.300171 C100.734612,563.065369 98.999420,563.740417 96.017319,564.156982 C87.306519,565.373840 83.035255,562.231995 79.604401,553.775879 C73.686546,539.190002 65.756805,525.422729 58.728985,511.283264 C56.961761,507.727783 55.413586,504.063446 52.890572,500.628845 C52.182644,516.870605 51.474716,533.112366 50.728977,550.221680 C56.978092,549.798401 62.642002,549.414734 68.655334,549.007446 C68.655334,556.855042 68.655334,564.596863 68.655334,572.500000 C47.026546,572.500000 25.283152,572.500000 3.268776,572.500000 C3.268776,564.946411 3.268776,557.210938 3.268776,548.874146 C10.090330,549.314575 16.747786,549.744446 23.664484,550.191040 C25.149446,529.256653 26.600119,508.805634 28.061901,488.197968 C20.338217,489.608673 13.045857,490.940613 5.173576,492.378448 C3.991162,484.400879 2.874767,476.868744 1.379185,469.168304 C1.000000,468.250000 1.000000,467.500000 1.000000,466.375000 z"/>
  <path fill="#EB1C2E" opacity="1.000000" stroke="none" d=" M621.428467,706.000000 C621.003540,701.330750 621.007019,696.661499 621.320801,691.421631 C621.690491,690.396118 621.749878,689.941101 621.809326,689.486206 C621.332642,689.744507 620.855957,690.002808 620.379211,690.261108 C607.948547,699.262817 594.358398,704.330933 578.720703,703.042419 C569.731812,702.301819 560.176514,693.465515 559.092896,683.692932 C558.292542,676.474976 558.276062,669.165771 558.023010,661.893311 C557.890198,658.077820 557.999573,654.253906 557.999573,649.610840 C553.101624,651.443420 548.694885,653.092224 543.662476,654.975159 C542.734497,650.559875 541.898804,646.323853 540.944092,642.114868 C540.014648,638.017151 538.963501,633.947021 537.852051,629.399231 C546.357666,628.250305 554.675476,627.049133 563.014709,626.021912 C571.441467,624.983887 579.889404,624.118164 588.976501,623.104675 C588.626160,627.483582 588.141846,631.811340 587.960815,636.151733 C587.560486,645.751526 586.857666,655.371948 587.159058,664.956299 C587.366882,671.568115 594.704285,676.841064 600.859619,674.783936 C607.679504,672.504822 614.069336,668.918579 620.579468,665.763367 C621.272644,665.427368 621.957458,664.135010 621.899048,663.341370 C621.553162,658.645569 620.986572,653.966064 620.482422,649.167847 C615.670715,650.850708 610.823059,652.546143 605.389465,654.446533 C603.515381,645.908875 601.729065,637.770691 599.799805,628.981567 C617.218994,626.982727 634.358948,625.015869 652.261108,622.961609 C651.153625,641.686035 650.066345,660.067505 648.933777,679.216125 C652.504639,677.937073 655.678284,677.018677 658.657043,675.669739 C661.438965,674.409790 662.511169,675.113159 663.043396,678.031433 C664.177551,684.250122 665.541443,690.427734 666.868286,696.609985 C667.627014,700.145020 666.257324,701.732605 662.667480,702.032166 C650.891785,703.014893 639.128723,704.149475 627.180420,705.612854 C625.285645,706.000000 623.571289,706.000000 621.428467,706.000000 z"/>
  <path fill="#5BBE81" opacity="1.000000" stroke="none" d=" M967.531372,0.999999 C965.894531,1.660441 963.789124,2.320885 961.009766,2.646873 C950.204102,2.202761 940.072327,2.093103 929.940552,1.983446 C929.999695,1.822513 930.058777,1.661580 930.058960,1.250324 C942.354248,1.000000 954.708435,1.000000 967.531372,0.999999 z"/>
  <path fill="#EB1C2E" opacity="1.000000" stroke="none" d=" M361.048584,600.991394 C372.069336,595.200439 383.554962,593.192810 395.495361,591.759521 C410.882202,589.912476 425.330444,592.924255 439.832397,596.952576 C441.395050,597.386658 442.917480,597.965393 444.644287,598.538696 C445.859955,593.183350 447.090698,587.761719 448.458771,581.735046 C458.686249,584.872498 468.796051,587.973816 479.052795,591.120178 C472.148651,609.993103 465.394745,628.455261 458.611725,646.997070 C450.619293,644.836731 442.872345,642.742798 434.549561,640.493164 C436.058258,634.131104 437.506653,628.023315 439.116516,621.234741 C419.677734,613.400696 400.239655,608.546570 381.232300,622.042908 C362.670044,635.223145 362.350952,661.314575 380.879669,674.264465 C389.670959,680.408813 399.744049,682.638794 410.381378,680.987732 C435.894043,677.027771 435.880707,676.941956 457.191162,664.165466 C460.742126,669.956360 464.334167,675.720581 467.821289,681.547607 C469.194794,683.842712 469.489349,685.382812 466.431488,687.416504 C453.447815,696.051025 439.289490,701.148743 423.905762,702.975403 C416.747833,703.825256 409.498383,705.230164 402.379852,704.822266 C385.129578,703.833923 368.092102,701.725037 353.320160,691.126587 C339.608307,681.288635 332.927704,667.983276 332.014618,651.467346 C331.067078,634.328552 337.355774,620.099243 349.941437,608.670471 C353.166077,605.742249 357.077118,603.569885 361.048584,600.991394 z"/>
  <path fill="#EB1C2E" opacity="1.000000" stroke="none" d=" M704.041748,589.000000 C708.410583,588.590332 712.319214,588.180664 716.944580,587.695862 C716.342346,601.666199 715.758362,615.213013 715.221252,627.672302 C724.411865,626.441895 733.525024,624.302856 742.653992,624.233215 C753.975464,624.146912 765.141907,626.852844 773.920532,634.610229 C783.335632,642.929993 786.315796,654.199219 784.682129,666.278503 C783.604919,674.243408 781.004761,681.814636 775.444458,688.366699 C767.917969,697.235535 758.481628,701.761658 747.325500,702.927795 C734.549133,704.263489 722.754517,701.162476 712.011963,692.974304 C712.011963,695.890808 712.011963,698.171021 712.011963,700.724243 C697.703796,700.724243 683.618835,700.724243 668.994141,700.724243 C670.028198,692.832886 671.049194,685.041016 672.124634,676.834045 C677.845703,677.635559 683.129211,678.375732 689.610962,679.283875 C688.581177,657.257446 687.575256,635.741882 686.528931,613.362061 C680.668030,615.588684 675.900269,617.399963 670.473328,619.461670 C668.595581,611.481079 666.681335,603.886475 665.188293,596.210022 C665.029236,595.392029 667.231873,593.310486 668.510742,593.145325 C678.085327,591.908386 687.705322,591.025635 697.305847,589.983643 C699.408508,589.755432 701.490173,589.333069 704.041748,589.000000 M752.996826,657.736816 C751.532837,652.570435 748.528503,648.909058 743.403259,646.798706 C734.350647,643.071350 725.865906,645.058655 717.517578,648.886475 C716.774536,649.227173 716.083374,650.574158 716.067749,651.466064 C715.948364,658.285828 715.944641,665.109558 716.067566,671.929199 C716.085266,672.911316 716.712585,674.278687 717.498291,674.787231 C723.144653,678.442200 729.014648,681.546814 736.099182,681.007019 C749.101135,680.016479 755.360229,669.706421 752.996826,657.736816 z"/>
  <path fill="#EB1C2E" opacity="1.000000" stroke="none" d=" M543.251892,501.692261 C556.973145,508.873535 562.013794,524.123230 559.234131,539.725403 C555.740417,559.334839 543.770996,570.188232 525.203735,573.624878 C513.650879,575.763306 502.023468,573.722961 491.699799,567.186768 C490.233948,566.258667 488.786652,565.301147 486.955780,564.114136 C486.955780,566.913208 486.955780,569.201782 486.955780,571.741943 C472.649445,571.741943 458.560852,571.741943 444.295105,571.741943 C445.268707,563.989929 446.234039,556.303650 447.301819,547.801758 C452.688721,548.564819 458.063202,549.326172 464.647980,550.258972 C463.705444,528.227417 462.785614,506.726562 461.822021,484.203003 C455.522980,486.667633 450.651703,488.573639 445.663086,490.525543 C443.736176,481.834869 441.953003,473.792358 439.953949,464.776184 C457.076447,462.719543 474.161133,460.667419 491.500000,458.584778 C491.500000,472.474091 491.500000,485.813080 491.500000,499.269348 C508.637146,494.230560 526.038025,492.424469 543.251892,501.692261 M523.479675,547.013611 C529.018616,540.894348 530.754639,533.764404 527.544617,526.211487 C524.435364,518.895752 517.909241,515.670654 510.273529,516.153442 C503.785126,516.563721 497.381012,518.307068 491.000153,519.449768 C491.000153,527.374512 490.845978,534.036987 491.104950,540.683350 C491.172455,542.416077 492.108612,544.538269 493.360718,545.731079 C500.198395,552.244690 513.209534,555.046509 523.479675,547.013611 z"/>
  <path fill="#EB1C2E" opacity="1.000000" stroke="none" d=" M239.676834,516.002930 C224.528625,515.891174 215.950607,519.778809 203.496994,527.138977 C199.489838,520.187805 195.486359,513.243042 191.320618,506.016785 C204.226959,500.152466 216.710587,495.995148 230.379776,494.739136 C241.702698,493.698669 252.568375,494.360352 263.245270,497.755066 C274.677490,501.389954 281.275299,509.771210 282.846069,521.392883 C284.102692,530.690063 283.997101,540.171326 284.515991,549.945618 C288.308136,548.701050 292.232239,547.413208 296.940155,545.868103 C298.778931,554.370850 300.602966,562.805481 302.538574,571.756042 C286.817230,573.607971 271.763702,575.381226 256.278015,577.205383 C256.278015,572.798401 256.278015,568.708069 256.278015,565.229370 C248.193924,567.934021 240.457092,571.347412 232.360504,573.043030 C219.365494,575.764343 206.474686,574.544983 195.320709,566.567200 C188.754852,561.870972 186.130386,554.611816 187.109482,546.647766 C188.231125,537.524292 193.984467,531.901672 202.518326,529.007812 C218.515015,523.583374 234.607193,524.131104 250.744064,528.332764 C252.293320,528.736145 253.836456,529.163086 255.339478,529.567505 C254.725754,521.523132 251.696655,518.186768 243.884033,516.974243 C242.613373,516.777039 241.380798,516.334473 239.676834,516.002930 M239.353683,555.013977 C244.638062,552.499451 249.922455,549.984924 255.206833,547.470337 C250.047653,544.885071 245.461456,542.845764 240.767029,542.555237 C235.731018,542.243652 230.341461,542.822266 225.574295,544.414185 C221.243210,545.860535 221.065170,549.097778 224.069427,552.534912 C228.166336,557.222168 233.256943,556.674683 239.353683,555.013977 z"/>
  <path fill="#EB1C2E" opacity="1.000000" stroke="none" d=" M649.389526,429.913544 C645.254028,424.802185 639.982788,425.206604 635.069397,426.621002 C630.953491,427.805878 627.116638,430.146149 623.380859,432.354858 C622.212097,433.045868 621.210632,434.931793 621.108032,436.341797 C620.808594,440.456970 621.001648,444.607971 621.001648,448.445770 C626.112183,448.445770 630.805115,448.445770 635.753296,448.445770 C635.753296,455.111816 635.753296,461.837616 635.753296,468.500000 C617.269165,468.500000 598.985474,468.500000 580.349243,468.500000 C580.349243,462.100281 580.349243,455.372559 580.349243,448.479553 C585.589661,448.479553 590.924988,448.479553 595.928589,448.479553 C595.928589,429.815125 595.928589,410.757111 595.928589,390.843414 C590.422546,392.912689 586.125549,394.527557 581.580566,396.235626 C579.900635,388.563995 578.285278,381.187134 576.549500,373.260590 C591.854431,371.379059 606.663269,369.558533 622.017395,367.670959 C621.342285,382.830505 620.699951,397.252625 620.038513,412.104248 C625.087341,409.340027 629.520203,406.306915 634.389587,404.372772 C644.646057,400.298828 655.093567,397.991974 665.955750,402.919067 C672.695984,405.976379 675.153076,412.003326 675.762634,418.187286 C676.673767,427.431549 676.005066,436.831207 676.024475,446.164734 C676.025452,446.630981 676.178772,447.096863 676.361694,448.131592 C680.838867,447.604004 685.261719,447.082825 690.203613,446.500458 C689.445312,453.369934 688.826233,460.194489 687.778687,466.952637 C687.645386,467.812683 685.290222,468.865112 683.935303,468.907806 C677.446655,469.112335 670.942932,468.839935 664.454651,469.049683 C659.077332,469.223541 653.714050,469.832947 647.804443,470.291290 C648.834656,463.921295 650.310303,458.362579 650.497925,452.760773 C650.749268,445.255646 650.003357,437.717072 649.389526,429.913544 z"/>
  <path fill="#EB1C2E" opacity="1.000000" stroke="none" d=" M751.964111,572.000000 C745.819885,572.666687 740.138855,573.357544 734.451294,573.990173 C731.441589,574.324951 729.398499,573.480469 727.655151,570.488464 C723.577148,563.489868 718.885010,556.849121 714.047729,549.462036 C709.577576,555.122375 704.988953,560.348022 701.098938,566.050293 C698.184204,570.322876 695.203064,572.628662 689.604980,572.158752 C682.008850,571.520996 674.318970,572.000000 666.335266,572.000000 C666.335266,564.065552 666.335266,556.335938 666.335266,547.837646 C669.352783,548.129700 672.451294,548.100708 675.385437,548.781006 C681.804199,550.269287 686.800598,547.761169 691.505432,543.862488 C694.773193,541.154602 700.110901,539.037048 700.867981,535.800537 C701.492249,533.131897 696.746704,529.210388 694.387329,525.839417 C692.810791,523.586792 691.245789,521.326172 689.502258,518.820007 C683.276611,521.339355 677.181030,523.806030 670.555725,526.487061 C668.255859,518.044739 666.068909,510.016876 663.665405,501.193970 C667.987061,500.447296 672.013000,499.552856 676.087952,499.087036 C686.016785,497.952118 696.150208,497.847626 705.850708,495.725739 C713.079102,494.144623 715.466309,497.591309 718.359375,502.621887 C721.809387,508.620667 725.898376,514.252014 729.956177,520.415710 C735.183777,513.529785 740.101746,506.909088 745.218018,500.445496 C746.127563,499.296448 747.846985,498.137756 749.216492,498.108368 C758.664185,497.905884 768.118286,498.001831 777.781982,498.001831 C777.781982,506.207275 777.781982,513.965149 777.781982,520.792175 C771.617920,520.792175 765.020813,519.184387 759.825989,521.196655 C753.241699,523.747131 747.796875,529.239197 741.591248,533.654419 C745.351257,538.603455 748.669617,543.444397 752.552124,547.780212 C753.653381,549.010071 756.663025,549.585510 758.342529,549.045715 C763.403137,547.418945 768.239746,545.095459 773.435730,542.930298 C775.737061,551.521729 778.002502,559.979065 780.314514,568.610291 C770.584656,569.792847 761.504578,570.896423 751.964111,572.000000 z"/>
  <path fill="#EB1C2E" opacity="1.000000" stroke="none" d=" M627.091064,495.954041 C645.548584,499.663544 659.338501,508.952179 662.527466,526.724731 C665.547913,543.558044 661.831909,558.544006 643.452209,567.916382 C620.879150,579.427185 597.880737,578.820496 576.605408,564.659424 C559.432678,553.229004 557.109375,526.231201 569.824158,511.524353 C578.925964,500.996399 590.510193,496.638397 603.833984,494.868103 C611.614868,493.834290 619.125061,493.878662 627.091064,495.954041 M629.073547,545.396790 C637.043762,532.381592 629.096741,515.258057 612.738159,515.243408 C600.518372,515.232422 589.733521,525.260376 594.129456,540.676208 C596.121460,547.662170 601.126343,552.487000 608.464905,553.914612 C616.857605,555.547302 624.875916,552.151306 629.073547,545.396790 z"/>
  <path fill="#EB1C2E" opacity="1.000000" stroke="none" d=" M376.995850,481.056641 C375.789276,475.592010 374.586639,470.555878 373.197937,464.740540 C391.255371,462.693237 409.333069,460.643616 428.039185,458.522766 C427.658722,464.908112 427.163300,470.431244 427.030823,475.963013 C426.613617,493.381958 426.424896,510.806641 425.954926,528.223877 C425.760529,535.427673 425.076538,542.618225 424.617126,549.785217 C430.881714,549.277039 436.226959,548.843445 441.777985,548.393127 C441.777985,556.302429 441.777985,564.406250 441.777985,572.497437 C420.575836,572.497437 399.508057,572.497437 378.220673,572.497437 C378.220673,564.689331 378.220673,556.740784 378.220673,549.150635 C384.632385,549.150635 391.057648,549.150635 397.318359,549.150635 C397.318359,528.317627 397.318359,506.790649 397.318359,484.508484 C390.997925,486.550446 385.504547,488.325226 379.316650,490.324371 C378.511536,487.252747 377.755676,484.368958 376.995850,481.056641 z"/>
  <path fill="#EB1C2E" opacity="1.000000" stroke="none" d=" M502.280762,591.036621 C511.183746,590.021851 519.620361,588.972900 528.074097,588.088623 C530.520447,587.832764 533.016113,588.049377 535.775452,588.049377 C535.221375,600.793030 534.622925,613.244507 534.164734,625.701172 C533.962891,631.187439 534.125549,636.686279 533.982971,642.175781 C533.707764,652.769470 533.326843,663.360413 533.006897,673.953003 C532.957703,675.581299 533.000000,677.212280 533.000000,678.756592 C538.841797,678.278931 544.187134,677.841797 549.759521,677.386108 C549.759521,685.277710 549.759521,693.376038 549.759521,701.497620 C528.598328,701.497620 507.528870,701.497620 486.229858,701.497620 C486.229858,693.716309 486.229858,685.767334 486.229858,678.162842 C492.617645,678.162842 499.038116,678.162842 505.447205,678.162842 C505.447205,657.140930 505.447205,635.432373 505.447205,613.348267 C499.985046,615.140320 495.063538,616.559204 490.300995,618.391174 C487.451843,619.487061 486.494995,618.795532 485.945831,615.904480 C484.586273,608.746948 482.935822,601.644714 481.274963,593.929016 C488.049255,592.984802 494.935089,592.024963 502.280762,591.036621 z"/>
  <path fill="#EB1C2E" opacity="1.000000" stroke="none" d=" M690.218384,430.524109 C693.185181,413.966766 703.668274,405.598053 718.846375,401.959717 C733.571472,398.429962 747.924988,398.925690 761.898987,405.382507 C776.031616,411.912628 783.649536,425.658569 781.738831,440.890869 C761.310608,440.890869 740.799622,440.890869 720.241821,440.890869 C720.924011,447.868164 729.809509,451.534546 736.560547,452.041229 C747.893921,452.891785 757.445190,447.980194 767.518616,442.682251 C770.761475,448.511719 773.953003,454.249023 777.604919,460.813782 C773.927368,462.615631 770.656433,464.694946 767.088562,465.880310 C754.539917,470.049438 741.557922,472.191620 728.392151,470.873535 C713.500549,469.382721 700.190735,463.941589 693.465759,449.454803 C690.906189,443.941101 691.106262,437.146362 690.218384,430.524109 M736.501587,429.000000 C742.577637,429.000000 748.653748,429.000000 754.883789,429.000000 C752.544434,422.085358 746.650940,418.279968 739.483704,417.944275 C727.015686,417.360321 721.252563,422.303680 719.591858,429.000000 C724.924744,429.000000 730.214050,429.000000 736.501587,429.000000 z"/>
  <path fill="#EB1C2E" opacity="1.000000" stroke="none" d=" M484.429413,402.452820 C489.846344,402.407104 494.937988,402.930023 500.019653,402.846710 C501.360596,402.824677 503.543854,401.133942 503.839386,399.860992 C504.937164,395.133026 505.408966,390.259735 506.149719,385.210358 C515.762390,383.398041 525.241455,381.610931 534.914062,379.787323 C533.070251,387.817871 531.386841,395.150146 529.699341,402.500000 C543.088928,402.500000 555.780518,402.500000 568.736206,402.500000 C568.736206,409.425842 568.736206,416.495758 568.736206,423.055695 C554.972168,423.055695 541.357788,423.055695 527.025146,423.055695 C527.025146,428.682312 526.713684,435.263794 527.140381,441.797058 C527.402039,445.802856 532.997192,449.544403 537.631714,450.028442 C548.059937,451.117462 557.391479,448.282074 565.995667,442.540680 C566.927795,441.918701 568.008484,441.519287 569.341248,440.857208 C572.470276,447.468842 575.564697,454.007263 579.195068,461.678101 C572.215332,463.906891 565.315369,466.564941 558.189087,468.285370 C545.690735,471.302734 532.814392,471.417297 520.455811,468.508667 C506.725281,465.277130 502.093842,456.351440 501.085266,443.153839 C500.592560,436.706451 501.000000,430.190247 501.000000,423.477722 C495.480347,423.477722 490.150696,423.477722 484.100372,423.477722 C484.100372,416.876343 484.100372,409.835510 484.429413,402.452820 z"/>
  <path fill="#EB1C2E" opacity="1.000000" stroke="none" d=" M316.006775,549.000000 C320.523163,549.213745 324.559662,549.427551 328.979980,549.661621 C328.539917,539.892395 328.103088,530.195862 327.637146,519.852478 C320.871857,521.901245 314.179321,523.927979 307.518066,525.945251 C305.647034,517.444275 303.803345,509.067444 301.838348,500.139465 C320.505219,498.076965 338.955170,496.038422 357.890564,493.946259 C357.006287,512.717651 356.135681,531.199219 355.269958,549.576477 C360.829163,549.264893 366.175018,548.965271 371.749207,548.652832 C371.749207,556.409973 371.749207,564.460571 371.749207,572.499756 C349.583618,572.499756 327.524994,572.499756 305.233032,572.499756 C305.233032,564.533142 305.233032,556.443726 305.233032,549.000000 C308.769714,549.000000 312.148285,549.000000 316.006775,549.000000 z"/>
  <path fill="#EB1C2E" opacity="1.000000" stroke="none" d=" M360.955353,482.651886 C357.294220,483.745941 353.690918,484.644867 350.038422,484.945312 C341.541626,485.644318 333.021118,486.054810 324.264160,486.597443 C324.264160,478.769684 324.264160,470.683258 324.264160,461.698334 C336.395752,462.545807 348.446564,463.387634 360.990814,464.263947 C360.990814,470.299347 360.990814,476.242096 360.955353,482.651886 z"/>
  <path fill="#FFFFFF" opacity="1.000000" stroke="none" d=" M620.543701,690.473633 C620.855957,690.002808 621.332642,689.744507 621.809326,689.486206 C621.749878,689.941101 621.690491,690.396118 621.357056,690.961304 C620.958130,690.943115 620.833130,690.814697 620.543701,690.473633 z"/>
</svg>